<?xml version="1.0" encoding="utf-8"?><svg width="936" height="568" fill="none" xmlns="http://www.w3.org/2000/svg"><g clip-path="url(#clip0)"><path d="M179.1-.198h585.819v336.65H179.1V-.198z" fill="url(#paint0_radial)" fill-opacity=".3"/><path d="M606.991 307.931h8.761v49.311h-8.761v-49.311z" fill="#010F18"/><path fill-rule="evenodd" clip-rule="evenodd" d="M606.991 357.243l-3.298-7.596v-41.714h3.298v49.31zM329.883 307.933h-3.295v49.31l3.295-8.732v-40.578z" fill="#031623"/><path d="M319.942 307.924h6.647v49.318h-6.647v-49.318z" fill="#010F18"/><path fill-rule="evenodd" clip-rule="evenodd" d="M319.942 300.44l-3.564 7.498v76.985l3.564-9.446V300.44zM615.752 376.712l3.566 8.21V307.93l-3.566-6.516v75.298z" fill="#031623"/><path fill-rule="evenodd" clip-rule="evenodd" d="M296.423 287.983h342.851v96.939h-19.958v-76.981H316.381v76.981h-19.958v-96.939z" fill="#021929"/><path fill-rule="evenodd" clip-rule="evenodd" d="M308.325 267.55l-11.902 20.433h342.851l-13.376-20.433H308.325z" fill="#032338"/><path fill-rule="evenodd" clip-rule="evenodd" d="M305.208 272.9l-8.785 15.084h342.851L629.4 272.9H305.208z" fill="#00CDFF" fill-opacity=".4"/><path d="M318.212 287.433h73.559l-.104.55h-73.749l.294-.55z" fill="#021929"/><path d="M301.296 67.735a5 5 0 015-5h331.425a5 5 0 015 5v179.602a5 5 0 01-5 5H306.296a5 5 0 01-5-5V67.735z" fill="#00CDFF"/><path fill-rule="evenodd" clip-rule="evenodd" d="M637.721 67.735H306.296v179.602h331.425V67.735zm-331.425-5a5 5 0 00-5 5v179.602a5 5 0 005 5h331.425a5 5 0 005-5V67.735a5 5 0 00-5-5H306.296z" fill="#00CDFF"/><path fill-rule="evenodd" clip-rule="evenodd" d="M464.606 252.337h-4.44v17.107H440.29v3.564h42.767v-3.564h-18.451v-17.107z" fill="#001224"/><path d="M304.503 62.736l5.346-1.426h326.1l3.325 1.426H304.503z" fill="#001224"/><path d="M579.091 382.958l-79.674 20.395-12.488-37.649 89.075 7.811 3.087 9.443z" fill="url(#paint1_radial)"/><path d="M575.719 373.528l3.091 9.506v-52.192l-3.091-8.21v50.896z" fill="#FF33B4"/><path fill-rule="evenodd" clip-rule="evenodd" d="M578.81 383.035v-52.193l18.533-4.247 18.532 4.247v52.193H578.81z" fill="#02111C"/><path d="M605.924 346.16a8.581 8.581 0 11-8.581-8.582 8.581 8.581 0 018.581 8.582zM605.923 368.288a8.582 8.582 0 11-17.164-.21 8.582 8.582 0 0117.164.21z" fill="#091A27"/><path d="M298.813 367.057h75.805v45.483h-75.805v-45.483z" fill="#031420"/><path fill-rule="evenodd" clip-rule="evenodd" d="M336.775 400.42h-.12.12zm10.548-11.166h-21.216c.284-5.613 4.925-10.077 10.608-10.077 5.683 0 10.324 4.464 10.608 10.077z" fill="#5F1919"/><path fill-rule="evenodd" clip-rule="evenodd" d="M326.108 390.343h21.216c-.284 5.613-4.925 10.077-10.608 10.077-5.683 0-10.324-4.464-10.608-10.077z" fill="#082C45"/><path fill-rule="evenodd" clip-rule="evenodd" d="M347.323 390.343a8.201 8.201 0 000-1.09h-21.215a8.965 8.965 0 000 1.09h21.215z" fill="#000"/><path fill-rule="evenodd" clip-rule="evenodd" d="M336.7 391.695a1.896 1.896 0 100-3.792 1.896 1.896 0 000 3.792zm0 1.546a3.442 3.442 0 100-6.884 3.442 3.442 0 000 6.884z" fill="#000"/><path fill-rule="evenodd" clip-rule="evenodd" d="M334.829 400.254c4.965-.891 8.733-5.233 8.733-10.454 0-5.222-3.768-9.564-8.733-10.454.613-.11 1.244-.168 1.888-.168 5.866 0 10.622 4.756 10.622 10.622s-4.756 10.621-10.622 10.621c-.644 0-1.275-.057-1.888-.167z" fill="#000" fill-opacity=".1"/><path d="M338.615 389.799a1.915 1.915 0 11-3.83 0 1.915 1.915 0 013.83 0z" fill="#082C45"/><path fill-rule="evenodd" clip-rule="evenodd" d="M305.494 351.402l-6.676 15.656 75.808.003 3.331-15.659h-72.463z" fill="#000C18"/><path fill-rule="evenodd" clip-rule="evenodd" d="M377.956 351.375l-3.335 15.68-.003 45.485 3.338-17.705v-43.46z" fill="#000C18"/><path d="M378.09 367.27h75.804v45.482H378.09V367.27z" fill="#031420"/><path fill-rule="evenodd" clip-rule="evenodd" d="M416.052 400.632h-.119.119zm10.548-11.166h-21.215c.283-5.613 4.924-10.077 10.607-10.077 5.684 0 10.325 4.464 10.608 10.077z" fill="#5F1919"/><path fill-rule="evenodd" clip-rule="evenodd" d="M405.385 390.555h21.216c-.284 5.613-4.925 10.077-10.608 10.077-5.684 0-10.324-4.464-10.608-10.077z" fill="#082C45"/><path fill-rule="evenodd" clip-rule="evenodd" d="M426.6 390.555a8.932 8.932 0 000-1.089h-21.215a8.94 8.94 0 000 1.089H426.6z" fill="#000"/><path fill-rule="evenodd" clip-rule="evenodd" d="M415.978 391.907a1.896 1.896 0 100-3.792 1.896 1.896 0 000 3.792zm0 1.546a3.441 3.441 0 003.441-3.442 3.441 3.441 0 10-6.883 0 3.442 3.442 0 003.442 3.442z" fill="#000"/><path fill-rule="evenodd" clip-rule="evenodd" d="M414.106 400.465c4.966-.891 8.734-5.232 8.734-10.454s-3.768-9.563-8.734-10.454c.613-.11 1.244-.167 1.889-.167 5.866 0 10.621 4.755 10.621 10.621 0 5.866-4.755 10.621-10.621 10.621-.645 0-1.276-.057-1.889-.167z" fill="#000" fill-opacity=".1"/><path d="M417.892 390.011a1.915 1.915 0 11-3.829.001 1.915 1.915 0 013.829-.001z" fill="#082C45"/><path fill-rule="evenodd" clip-rule="evenodd" d="M381.318 351.448l-3.211 15.837 75.79-.014-.17-15.823h-72.409z" fill="#000C18"/><path d="M357.005 319.761h75.804v45.483h-75.804v-45.483z" fill="#031420"/><path fill-rule="evenodd" clip-rule="evenodd" d="M394.967 353.123h-.119.119zm10.548-11.166H384.3c.283-5.613 4.924-10.077 10.607-10.077 5.684 0 10.325 4.464 10.608 10.077z" fill="#5F1919"/><path fill-rule="evenodd" clip-rule="evenodd" d="M384.299 343.045h21.216c-.284 5.613-4.925 10.078-10.608 10.078-5.683 0-10.324-4.465-10.608-10.078z" fill="#082C45"/><path fill-rule="evenodd" clip-rule="evenodd" d="M405.515 343.046a8.965 8.965 0 000-1.09H384.3a8.199 8.199 0 000 1.09h21.215z" fill="#000"/><path fill-rule="evenodd" clip-rule="evenodd" d="M394.891 344.397a1.896 1.896 0 100-3.791 1.896 1.896 0 000 3.791zm0 1.546a3.442 3.442 0 100-6.884 3.442 3.442 0 000 6.884z" fill="#000"/><path fill-rule="evenodd" clip-rule="evenodd" d="M393.021 352.955c4.965-.89 8.733-5.232 8.733-10.454 0-5.221-3.768-9.563-8.733-10.454.613-.11 1.244-.167 1.888-.167 5.866 0 10.622 4.755 10.622 10.621 0 5.866-4.756 10.622-10.622 10.622-.644 0-1.275-.058-1.888-.168z" fill="#000" fill-opacity=".1"/><path d="M396.806 342.501a1.915 1.915 0 11-3.829.001 1.915 1.915 0 013.829-.001z" fill="#082C45"/><path fill-rule="evenodd" clip-rule="evenodd" d="M361.224 305.826l-4.218 13.935h75.798l.782-13.935h-72.362z" fill="#000C18"/><path fill-rule="evenodd" clip-rule="evenodd" d="M433.588 305.82l-.783 13.938.007 45.471.776-15.873V305.82z" fill="#80266F"/><path d="M428.169 286.011h57.023v1.425h-57.023v-1.425z" fill="#3C1B1B"/><path fill-rule="evenodd" clip-rule="evenodd" d="M429.525 275.389l-1.356 10.623 57.023.002-.858-10.625h-54.809z" fill="#42AFCA"/><path fill-rule="evenodd" clip-rule="evenodd" d="M431.973 283.891l-.162 1.415h.738l.159-1.415h4.213l-.136 1.415h.738l.132-1.415h4.213l-.111 1.415h.738l.107-1.415h4.212l-.084 1.415h.738l.081-1.415h4.222l-.059 1.415h.738l.055-1.415h4.225l-.033 1.415h.738l.029-1.415h4.204l-.008 1.415h.738l.004-1.415h4.213l.018 1.415h.738l-.022-1.415h4.212l.044 1.415h.738l-.047-1.415h4.221l.07 1.415h.738l-.073-1.415h4.233l.096 1.415h.738l-.1-1.415h2.092l-.057-.713h-2.085l-.101-1.435h2.07l-.058-.713h-2.062l-.101-1.436h2.048l-.058-.713h-2.041l-.095-1.349h2.027l-.057-.713h-2.02l-.101-1.433h-.711l.097 1.433h-4.123l-.075-1.433h-.711l.071 1.433h-4.112l-.048-1.433h-.712l.045 1.433h-4.103l-.022-1.433h-.712l.019 1.433h-4.103l.004-1.433h-.711l-.008 1.433h-4.095l.029-1.433h-.711l-.033 1.433h-4.115l.056-1.433h-.712l-.059 1.433h-4.111l.082-1.433h-.712l-.086 1.433h-4.102l.108-1.433h-.712l-.112 1.433h-4.102l.134-1.433h-.711l-.138 1.433h-4.104l.161-1.433h-.711l-.165 1.433h-2.729l-.091.713h2.739l-.155 1.349h-2.757l-.091.713h2.766l-.165 1.436h-2.784l-.091.713h2.794l-.165 1.435h-2.812l-.091.713h2.821zm.815-.713h4.202l.138-1.435h-4.18l-.16 1.435zm.24-2.148h4.169l.138-1.436h-4.146l-.161 1.436zm.241-2.149h4.135l.13-1.349h-4.114l-.151 1.349zm4.982-1.349l-.126 1.349h4.134l.106-1.349h-4.114zm4.831 0l-.102 1.349h4.135l.081-1.349h-4.114zm4.831 0l-.077 1.349h4.143l.056-1.349h-4.122zm4.839 0l-.052 1.349h4.147l.031-1.349h-4.126zm4.843 0l-.028 1.349h4.127l.007-1.349h-4.106zm4.823 0l-.003 1.349h4.135l-.018-1.349h-4.114zm4.831 0l.021 1.349h4.135l-.042-1.349h-4.114zm4.831 0l.046 1.349h4.144l-.067-1.349h-4.123zm4.84 0l.07 1.349h4.156l-.092-1.349h-4.134zm4.274 2.062h-4.166l.074 1.436h4.189l-.097-1.436zm.145 2.149h-4.199l.074 1.435h4.223l-.098-1.435zm-4.857 1.435l-.071-1.435h-4.188l.048 1.435h4.211zm-4.943 0l-.045-1.435h-4.179l.023 1.435h4.201zm-4.934 0l-.018-1.435h-4.179l-.004 1.435h4.201zm-4.934 0l.008-1.435h-4.171l-.029 1.435h4.192zm-4.924 0l.033-1.435h-4.192l-.055 1.435h4.214zm-4.947 0l.06-1.435h-4.188l-.082 1.435h4.21zm-4.943 0l.086-1.435h-4.179l-.108 1.435h4.201zm-4.934 0l.113-1.435h-4.179l-.135 1.435h4.201zm-4-2.148h4.168l.113-1.436h-4.146l-.135 1.436zm5.003-1.436l-.108 1.436h4.168l.086-1.436h-4.146zm4.869 0l-.082 1.436h4.177l.059-1.436h-4.154zm4.877 0l-.056 1.436h4.181l.033-1.436h-4.158zm4.881 0l-.03 1.436h4.16l.007-1.436h-4.137zm4.86 0l-.004 1.436h4.168l-.018-1.436h-4.146zm4.868 0l.023 1.436h4.168l-.045-1.436h-4.146zm4.869 0l.049 1.436h4.177l-.071-1.436h-4.155zm-40.42 6.418v-.002h.741l-.001.002h-.74zm4.987 0v-.002h.74v.002h-.74zm4.985 0v-.002h.74v.002h-.74zm4.985 0v-.002h.74v.002h-.74zm4.995 0v-.002h.74v.002h-.74zm4.999 0v-.002h.74v.002h-.74zm4.976 0v-.002h.74v.002h-.74zm4.985 0v-.002h.74v.002h-.74zm4.985 0v-.002h.74v.002h-.74zm4.995 0v-.002h.74v.002h-.74zm5.007 0l-.001-.002h.74l.001.002h-.74z" fill="#865B5B"/><path fill-rule="evenodd" clip-rule="evenodd" d="M350.14 233.357V81.716h109.021v151.641H350.14zm-.334-154.585a2.61 2.61 0 00-2.61 2.61V233.69a2.61 2.61 0 002.61 2.611h109.688a2.611 2.611 0 002.611-2.611V81.383a2.61 2.61 0 00-2.611-2.611H349.806z" fill="#003A48"/><path d="M357.683 213.641c0-.981.795-1.776 1.776-1.776h80.137a1.777 1.777 0 110 3.553h-80.137a1.776 1.776 0 01-1.776-1.777zM357.682 220.038c0-.981.796-1.777 1.777-1.777h47.833a1.778 1.778 0 010 3.554h-47.833a1.778 1.778 0 01-1.777-1.777zM357.683 194.454c0-.981.795-1.777 1.776-1.777h80.137a1.778 1.778 0 010 3.554h-80.137a1.777 1.777 0 01-1.776-1.777zM357.682 200.849c0-.981.796-1.776 1.777-1.776h47.833a1.777 1.777 0 110 3.553h-47.833a1.777 1.777 0 01-1.777-1.777zM357.683 175.267c0-.981.795-1.777 1.776-1.777h80.137a1.778 1.778 0 010 3.554h-80.137a1.777 1.777 0 01-1.776-1.777zM357.682 181.663c0-.981.796-1.776 1.777-1.776h47.833a1.777 1.777 0 110 3.553h-47.833a1.777 1.777 0 01-1.777-1.777z" fill="#003A48"/><path fill-rule="evenodd" clip-rule="evenodd" d="M449.487 102.112a3.565 3.565 0 00-3.564-3.564h-82.546a3.564 3.564 0 00-3.563 3.564v54.89a3.564 3.564 0 003.563 3.564h82.546a3.564 3.564 0 003.564-3.564v-54.89zm-88.241-5.696a3.564 3.564 0 00-3.564 3.564v59.153a3.563 3.563 0 003.564 3.564h86.809a3.564 3.564 0 003.564-3.564V99.98a3.564 3.564 0 00-3.564-3.564h-86.809z" fill="#003A48"/><path fill-rule="evenodd" clip-rule="evenodd" d="M428.644 101.945c-8.293-4.954-6.785-1.723-2.369 1.508 0 2.845-3.428 16.297-4.826 16.439-1.399.141-2.828.777-2.828 2.12-1.696-1.626-4.312-1.555-7.618-1.343-2.644.17-11.904-8.082-16.203-12.229l-2.404-.989c-7.987-5.506-6.361-1.414-2.332.989l.565 16.753c1.343.071 2.913.17-1.555 0-4.467-.17-3.039 3.746-1.767 5.726 2.804 1.908 7.747 5.725 5.089 5.725-2.657 0-4.076.754-4.453 1.131l-.636-1.131c-4.524 2.247-10.462 9.896-.587 11.238.508 2.745 8.078 4.149 11.651 4.812.764.142 1.346.25 1.636.33.885.867 2.596 1.018 3.341.985 0 .566-.252 1.714-1.258 1.784-1.007.071-2.546 1.339-3.189 1.964 1.238 0 3.61.049 3.189.245-.422.197-.488 1.227-.468 1.717.555-.747 1.755-1.38 3.101-1.38 1.146.689 2.072-.101 2.391-.582-.243.439-.16.588.037.946.097.175.221.401.348.736 1.178-.224 2.827-3.177 3.504-4.625.141-.257.295-.897-.21-1.402-.504-.504-.07-1.191.21-1.471 3.715 1.857 10.372 1.156 11.844-.281-.196.729.899.911 1.472.911-.689.561-1.759 1.729-.526 1.914 1.233.186 2.429 2.422 2.873 3.517l1.437 1.717.526-2.242 1.226-.666 4.45 1.191-.631-1.191 1.822-.175-2.408-2.151c5.035-1.522 4.605-4.125 4.079-7.312l-.045-.274c-.476-2.911-6.121-6.423-9.212-8.008l-.823-3.011c8.831 1.204 4.496-7.707 0-8.748 2.551-4.121 4.683-3.796 5.431-3.118 4.121-5.074 12.404-1.297 14.973 6.686.83-2.372-.299-7.658-1.506-13.31-.254-1.191-.512-2.399-.756-3.598-4.222-6.634-12.816-10.662-16.585-11.847zm-36.494 40.16c.037-1.002-.665-1.5-1.021-1.624l-1.253.464-.649 2.041c-.897.928-2.45 3.025-1.485 3.99.965.965 3.464 1.701 4.593 1.949h6.403v-1.253c-1.98.201-5.948.251-5.985-1.16-.037-1.41-1.098-2.536-1.624-2.923-.381-.435-.155-.567.209-.78.257-.15.582-.34.812-.704zm10.294 1.3c.213-.941.899-2.801 1.938-2.71 1.299.113.283 2.71-1.938 2.71z" fill="#003A48"/><path d="M357.682 88.017c0-.839.68-1.518 1.518-1.518h48.199c.839 0 1.519.68 1.519 1.518v2.649c0 .838-.68 1.518-1.519 1.518H359.2c-.838 0-1.518-.68-1.518-1.518v-2.65z" fill="#003A48"/><path fill-rule="evenodd" clip-rule="evenodd" d="M491.904 141.663a2 2 0 00-2 2v24.118a2 2 0 002 2h24.118a2 2 0 002-2v-24.118a2 2 0 00-2-2h-24.118zm20.196 12.712h-16.274v2.691H512.1v-2.691zM570.054 141.661a2 2 0 00-2 2v24.119a2 2 0 002 2h24.119a2 2 0 002-2v-24.119a2 2 0 00-2-2h-24.119zm10.715 22.197v-6.792h-6.792v-2.691h6.792v-6.791h2.691v6.791h6.791v2.691h-6.791v6.792h-2.691z" fill="#003A48"/><path d="M550.24 157.665c0 2.875-.648 5.092-1.944 6.651-1.287 1.559-3.104 2.339-5.453 2.339-2.368 0-4.2-.785-5.496-2.354-1.296-1.569-1.944-3.781-1.944-6.636v-3.888c0-2.875.643-5.092 1.929-6.652 1.296-1.559 3.124-2.338 5.482-2.338s4.186.784 5.482 2.353c1.296 1.569 1.944 3.786 1.944 6.651v3.874zm-4.926-4.517c0-1.53-.2-2.67-.6-3.421-.399-.76-1.033-1.14-1.9-1.14-.848 0-1.467.351-1.856 1.053-.381.701-.585 1.764-.614 3.186v5.438c0 1.589.199 2.753.599 3.494.399.731 1.033 1.096 1.9 1.096.838 0 1.457-.356 1.857-1.067.399-.721.604-1.847.614-3.377v-5.262z" fill="#003A48"/><path fill-rule="evenodd" clip-rule="evenodd" d="M551.177 294.636c.437.883.942 1.736 1.523 2.547 6.961 9.716 22.624 60.04-30.455 60.04h-5.006c-53.079 0-37.417-50.324-30.456-60.04a18.225 18.225 0 001.524-2.547c-9.052 2.561-16.299-1.63-16.299-8.03 0-5.766 5.329-8.548 8.246-8.188 4.328.535 8.205-.242 10.005-2.229a29.406 29.406 0 00-.72-3.225h27.7v-.001h32.706a29.46 29.46 0 00-.721 3.226c1.8 1.987 5.678 2.764 10.006 2.229 2.917-.36 8.245 2.422 8.245 8.188 0 6.4-7.246 10.591-16.298 8.03z" fill="#132522"/><path d="M452.509 181.667c15.001 2.369 47.092 15.103 55.451 47.092-32.88-.696-52.803-32.184-55.451-47.092zM588.42 181.667c-15 2.369-47.091 15.103-55.451 47.092 32.881-.696 52.804-32.184 55.451-47.092z" fill="#132522"/><path fill-rule="evenodd" clip-rule="evenodd" d="M507.96 228.759c-8.359-31.989-40.45-44.723-55.451-47.092.127.713.293 1.462.497 2.245 15.428 3.168 43.932 15.693 52.594 44.743.779.053 1.566.087 2.36.104zM532.969 228.759c8.359-31.989 40.45-44.723 55.451-47.092a28.868 28.868 0 01-.497 2.245c-15.428 3.168-43.932 15.693-52.594 44.743-.779.053-1.566.087-2.36.104z" fill="#0C7995"/><path fill-rule="evenodd" clip-rule="evenodd" d="M520.465 214.72c-10.995 0-32.296 5.573-32.296 23.744 0 1.586.389 2.934.784 4.303.422 1.464.851 2.952.82 4.782-.018 1.027-.541 2.002-1.229 3.282-1.357 2.527-3.352 6.244-3.352 13.897 0 6.566 11.528 20.451 35.273 20.451V214.72zm0 0c10.994 0 32.295 5.573 32.295 23.744 0 1.586-.389 2.934-.784 4.303-.422 1.464-.851 2.952-.82 4.782.018 1.027.542 2.002 1.229 3.282 1.357 2.527 3.352 6.244 3.352 13.897 0 6.566-11.528 20.451-35.272 20.451V214.72z" fill="#132522"/><path fill-rule="evenodd" clip-rule="evenodd" d="M539.164 218.98c-6.372-3.086-13.672-4.281-18.762-4.281v1.971h.074v5.671h.001v-5.671c4.662 0 11.177 1.002 17.136 3.542.766-.362 1.301-.773 1.551-1.232zm-18.762-4.281v1.971c-4.634.011-11.069 1.006-16.972 3.504-.854-.365-1.452-.773-1.725-1.225 6.356-3.064 13.624-4.25 18.697-4.25zm-27.898 11.288c-2.657 3.27-4.334 7.378-4.334 12.477 0 1.586.388 2.934.783 4.303.422 1.464.852 2.952.82 4.782-.018 1.027-.541 2.002-1.228 3.282-1.357 2.527-3.353 6.244-3.353 13.897 0 2.351 1.479 5.642 4.469 8.898l.653 2.498c-1.775 2.031-5.688 2.83-10.06 2.29-2.917-.361-8.246 2.422-8.246 8.188 0 1.45.373 2.788 1.054 3.958a7.98 7.98 0 01-.269-2.075c0-5.766 5.329-8.548 8.246-8.188 4.908.607 9.235-.474 10.613-3.091a22.1 22.1 0 00-.281-1.158l.026-.007-.854-3.267v-2.33c-1.345-2.132-2.012-4.136-2.012-5.716 0-7.653 1.995-11.37 3.352-13.897.688-1.28 1.211-2.255 1.229-3.282.031-1.83-.398-3.318-.82-4.782-.395-1.369-.784-2.717-.784-4.303 0-4.302 1.194-7.897 3.162-10.88l-2.166-1.597zm60.256 12.477c0-5.099-1.678-9.207-4.334-12.477l-2.167 1.597c1.968 2.983 3.162 6.578 3.162 10.88 0 1.586-.389 2.934-.783 4.303-.423 1.464-.852 2.952-.82 4.782.018 1.027.541 2.002 1.228 3.282 1.357 2.527 3.353 6.244 3.353 13.897 0 1.58-.668 3.584-2.013 5.716v.93l-.06-.912-1.725 4.479-.007.07-.028-.066c-.234.681-.44 1.439-.615 2.251 1.378 2.618 5.705 3.699 10.613 3.092 2.917-.36 8.246 2.422 8.246 8.188a7.98 7.98 0 01-.269 2.075 7.797 7.797 0 001.054-3.958c0-5.766-5.329-8.549-8.246-8.188-4.417.546-8.364-.275-10.113-2.353l.099-.565 1.051-.956v.01l.124-.123.072-.065-.001-.007c3.451-3.484 5.156-7.093 5.156-9.618 0-7.653-1.995-11.37-3.352-13.897-.687-1.28-1.211-2.255-1.228-3.282-.032-1.83.397-3.318.819-4.782.395-1.369.784-2.717.784-4.303z" fill="#0C7995"/><path d="M547.65 327.818l-9.747 4.061-1.219-2.369 6.092-4.332-7.31-15.975 14.147-1.151-8.597-15.839c4.062-.384 12.117-.745 18.48-1.151-.217-5.361-5.641-24.436-8.326-33.304 11.507-2.775 51.377-3.181 67.893 0l-18.479 33.304-27.415-10.086-1.692 23.827-15.23-3.926 5.076 15.163-16.313.677 2.64 11.101z" fill="#111E1C"/><path fill-rule="evenodd" clip-rule="evenodd" d="M554.031 298.599l7.236 1.865 10.266 2.78-.103 1.449-15.23-3.926 5.077 15.163-16.104.668-.545-2.236 14.48-.601-5.077-15.162z" fill="#FF33B4" fill-opacity=".2"/><path fill-rule="evenodd" clip-rule="evenodd" d="M617.435 260.692c-16.091-2.653-49.669-2.449-63.388-.268v-.006c-.661.104-1.278.211-1.845.323a28.15 28.15 0 00-.507-3.119 47.812 47.812 0 013.21-.554l.001.003c14.724-2.132 49.119-2.209 64.157.688l-1.628 2.933z" fill="#0C7995"/><path fill-rule="evenodd" clip-rule="evenodd" d="M477.453 311.482v39.342c0 8.394 19.257 15.199 43.012 15.199s43.013-6.805 43.013-15.199V311.5v-.018c0-13.826-19.258-25.035-43.013-25.035s-43.012 11.209-43.012 25.035z" fill="#021929"/><path fill-rule="evenodd" clip-rule="evenodd" d="M524.424 364.226h-7.389v21.111h-34.832v6.333h76.525v-6.333h-34.304v-21.111z" fill="#021929"/><path fill-rule="evenodd" clip-rule="evenodd" d="M524.423 366.149h-.543v19.731h.543v-19.731zm34.305 19.731v-.543h-34.305v.543h34.305z" fill="#80266F"/><path d="M517.035 365.984h7.387v.784h-7.387v-.784z" fill="#000"/><path fill-rule="evenodd" clip-rule="evenodd" d="M562.111 310.503c.035.415.053.833.053 1.254h.001v39.341c-.001 3.064-2.567 5.917-6.981 8.304v.67c5.215-2.515 8.294-5.618 8.294-8.975v-39.341h-.001v-.001c0-.42-.018-.837-.053-1.252h-1.313z" fill="#80266F"/><path fill-rule="evenodd" clip-rule="evenodd" d="M476.796 311.756c0-5.528 3.079-10.639 8.294-14.781v1.104c-4.415 3.931-6.981 8.63-6.981 13.677V348.711h-1.313v-36.955z" fill="#0C7995" fill-opacity=".5"/><path fill-rule="evenodd" clip-rule="evenodd" d="M685.858 383.221l6.976-57.537h-51.853l6.976 57.537a.326.326 0 00-.076.198c0 1.216 8.519 2.202 19.027 2.202 10.507 0 19.026-.986 19.026-2.202a.329.329 0 00-.076-.198z" fill="#13181C"/><path d="M692.833 325.684c0 1.915-11.607 3.468-25.926 3.468-14.318 0-25.926-1.553-25.926-3.468s11.608-3.468 25.926-3.468c14.319 0 25.926 1.553 25.926 3.468z" fill="#222121"/><path fill-rule="evenodd" clip-rule="evenodd" d="M692.834 325.689a.472.472 0 01-.016.123l-.005.014c-5.996-2.46-13.575-3.162-18.294-3.453 10.604.435 18.315 1.755 18.315 3.316zm-17.888 3.305c10.117-.441 17.5-1.692 17.874-3.18l-.152 1.247c-4.253 2.14-13.572 2.262-18.061 2.023l.339-.09z" fill="#00CDFF" fill-opacity=".1"/><path fill-rule="evenodd" clip-rule="evenodd" d="M326.806 270.117l-8.742 17.313h74.208l4.097-17.313h-69.563z" fill="#352929"/><path fill-rule="evenodd" clip-rule="evenodd" d="M356.797 285.674l-.086.22c-.017.045.019.085.09.112l-.09.231c-.017.046.022.087.097.114l-.097.249c-.017.044.019.084.089.111l-.089.228c-.031.082.115.148.327.148h34.4c.213 0 .402-.066.422-.148l4.312-16.605c.008-.033-.018-.062-.066-.085l.066-.255c.008-.033-.019-.064-.072-.087l.072-.276c.008-.032-.018-.062-.067-.085l.067-.257c.008-.032-.017-.061-.064-.084l-4.248 16.359c-.02.081-.209.147-.422.147h-34.4a.69.69 0 01-.241-.037zm-38.367.22l.109-.206a.73.73 0 00.197.023h34.4c.212 0 .411-.066.443-.147l6.561-16.375c.071.024.108.06.093.1l-.097.241c.074.024.113.06.097.101l-.105.26c.079.023.121.061.105.103l-.096.239c.073.024.111.06.096.101l-6.654 16.605c-.032.082-.231.148-.443.148h-34.4c-.213 0-.349-.066-.306-.148l.113-.214c-.094-.027-.141-.073-.113-.126l.124-.235c-.101-.025-.153-.073-.124-.128l.114-.216c-.094-.027-.142-.073-.114-.126z" fill="#29474F"/><path d="M327.661 268.828h32.262c.199 0 .337.059.309.129l-6.653 16.606c-.033.081-.232.148-.443.148h-34.401c-.212 0-.349-.067-.306-.149l8.803-16.605c.038-.07.23-.129.429-.129zM363.582 268.827h32.262c.199 0 .345.059.327.129l-4.312 16.606c-.02.081-.209.148-.422.148h-34.4c-.212 0-.358-.067-.327-.148l6.462-16.606c.028-.07.211-.129.41-.129z" fill="#91B1B9"/><path fill-rule="evenodd" clip-rule="evenodd" d="M358.028 282.536c-.201-.458-.771-.891-1.636-.891-.871 0-1.442.439-1.64.901v.005c0 .093-.168.168-.376.168-.207 0-.376-.075-.376-.169a.07.07 0 01.009-.034c.221-.903 1.204-1.584 2.383-1.584s2.163.681 2.384 1.584a.084.084 0 01.008.034c0 .094-.17.169-.379.169s-.378-.075-.378-.168l.001-.015zM360.18 276.836c-.202-.459-.771-.892-1.636-.892-.871 0-1.442.439-1.64.901v.005c0 .093-.168.168-.376.168-.207 0-.376-.075-.376-.168 0-.012.003-.024.008-.035.222-.903 1.205-1.584 2.384-1.584 1.179 0 2.162.681 2.383 1.584a.073.073 0 01.009.035c0 .093-.17.168-.379.168s-.379-.075-.379-.168l.002-.014zM362.245 271.733c-.201-.458-.771-.891-1.636-.891-.871 0-1.442.439-1.64.901l.001.004c0 .093-.169.169-.376.169-.208 0-.376-.076-.376-.169 0-.012.003-.023.008-.035.221-.903 1.204-1.583 2.383-1.583 1.18 0 2.163.681 2.384 1.584a.08.08 0 01.008.034c0 .093-.17.169-.379.169s-.378-.076-.378-.169l.001-.014z" fill="#717171"/><path fill-rule="evenodd" clip-rule="evenodd" d="M328.635 269.544c.029-.056.179-.102.334-.102h8.414c.156 0 .258.046.231.102l-2.114 4.329c-.028.059-.179.106-.338.106h-8.563c-.158 0-.261-.047-.231-.106l2.267-4.329zm.488.546c.046-.089.287-.163.536-.163h6.543c.249 0 .416.073.371.163l-.779 1.586c-.045.09-.285.165-.536.165h-6.59c-.252 0-.417-.075-.37-.165l.825-1.586z" fill="#554E12"/><path fill-rule="evenodd" clip-rule="evenodd" d="M325.904 274.762c.03-.059.183-.105.342-.105h8.586c.159 0 .263.046.235.105l-2.203 4.51c-.029.06-.183.109-.345.109h-8.741c-.161 0-.267-.049-.235-.109l2.361-4.51zm.492.569c.049-.094.296-.171.549-.171h6.676c.255 0 .423.077.378.171l-.811 1.65c-.047.095-.294.172-.55.172h-6.727c-.256 0-.423-.077-.374-.172l.859-1.65z" fill="#285221"/><path fill-rule="evenodd" clip-rule="evenodd" d="M323.059 280.196c.032-.06.188-.109.35-.109h8.765c.162 0 .269.049.239.109l-2.297 4.703c-.03.063-.188.114-.353.114h-8.927c-.165 0-.272-.051-.239-.114l2.462-4.703zm.497.593c.051-.099.303-.178.563-.178h6.814c.26 0 .432.079.384.178l-.845 1.721c-.05.099-.302.179-.564.179h-6.868c-.261 0-.431-.08-.38-.179l.896-1.721z" fill="#1A4755"/><path fill-rule="evenodd" clip-rule="evenodd" d="M338.968 269.544c.027-.057.175-.102.33-.102h8.415c.155 0 .26.046.235.102l-1.939 4.329c-.026.059-.175.106-.333.106h-8.564c-.158 0-.264-.047-.235-.106l2.091-4.329zm.512.545c.043-.089.28-.163.53-.163h6.541c.249 0 .418.074.377.163l-.714 1.586c-.041.091-.278.165-.53.165h-6.589c-.251 0-.42-.074-.376-.165l.761-1.586z" fill="#552612"/><path fill-rule="evenodd" clip-rule="evenodd" d="M336.448 274.762c.028-.059.179-.105.338-.105h8.587c.158 0 .265.046.239.105l-2.02 4.51c-.027.06-.18.109-.341.109h-8.743c-.161 0-.268-.049-.239-.109l2.179-4.51zm.516.569c.045-.094.288-.17.543-.17h6.674c.255 0 .427.076.384.17l-.744 1.65c-.042.096-.285.173-.542.173h-6.726c-.256 0-.427-.077-.382-.173l.793-1.65z" fill="#554E12"/><path fill-rule="evenodd" clip-rule="evenodd" d="M333.823 280.196c.029-.06.184-.109.346-.109h8.765c.162 0 .271.049.244.109l-2.106 4.703c-.028.063-.185.114-.35.114h-8.927c-.165 0-.274-.051-.243-.114l2.271-4.703zm.521.594c.047-.099.296-.178.556-.178h6.813c.26 0 .435.079.391.178l-.776 1.72c-.045.1-.293.18-.555.18h-6.868c-.261 0-.435-.08-.387-.18l.826-1.72z" fill="#285221"/><path fill-rule="evenodd" clip-rule="evenodd" d="M349.3 269.544c.026-.057.171-.102.327-.102h8.414c.156 0 .263.046.24.102l-1.764 4.329c-.024.059-.171.106-.329.106h-8.564c-.158 0-.266-.047-.24-.106l1.916-4.329zm.535.545c.039-.089.274-.163.523-.163h6.542c.25 0 .423.074.385.163l-.651 1.586c-.037.091-.271.165-.523.165h-6.59c-.252 0-.423-.073-.383-.165l.697-1.586z" fill="#1A4755"/><path fill-rule="evenodd" clip-rule="evenodd" d="M346.992 274.762c.025-.059.175-.105.333-.105h8.586c.159 0 .268.046.244.105l-1.837 4.51c-.025.06-.175.109-.336.109h-8.742c-.162 0-.271-.049-.244-.109l1.996-4.51zm.539.569c.042-.094.282-.171.536-.171h6.675c.255 0 .431.077.392.171l-.678 1.65c-.038.095-.278.172-.535.172h-6.727c-.256 0-.43-.077-.388-.172l.725-1.65z" fill="#552612"/><path fill-rule="evenodd" clip-rule="evenodd" d="M344.587 280.196c.027-.06.179-.109.341-.109h8.766c.162 0 .273.049.248.109l-1.916 4.703c-.026.063-.18.114-.344.114h-8.928c-.165 0-.277-.051-.248-.114l2.081-4.703zm.545.593c.044-.099.29-.178.549-.178h6.814c.261 0 .438.079.399.178l-.706 1.721c-.041.099-.287.179-.549.179h-6.868c-.262 0-.439-.08-.395-.179l.756-1.721z" fill="#554E12"/><path fill-rule="evenodd" clip-rule="evenodd" d="M364.658 269.544c.021-.057.164-.102.32-.102h8.415c.155 0 .264.047.245.102l-1.503 4.33c-.02.058-.165.105-.322.105h-8.565c-.159 0-.268-.047-.245-.106l1.655-4.329zm.565.546c.034-.089.264-.163.514-.163h6.541c.249 0 .425.074.394.163l-.556 1.586c-.032.091-.26.165-.512.165h-6.59c-.251 0-.427-.074-.392-.165l.601-1.586z" fill="#1A4755"/><path fill-rule="evenodd" clip-rule="evenodd" d="M362.663 274.762c.022-.059.167-.105.326-.105h8.588c.158 0 .269.046.25.105l-1.566 4.51c-.022.06-.169.109-.33.109h-8.743c-.161 0-.273-.049-.25-.109l1.725-4.51zm.573.569c.035-.094.271-.17.525-.17h6.675c.254 0 .434.076.401.17l-.578 1.65c-.034.096-.269.173-.525.173h-6.726c-.256 0-.435-.077-.399-.173l.627-1.65z" fill="#285221"/><path fill-rule="evenodd" clip-rule="evenodd" d="M360.585 280.196c.022-.06.171-.109.334-.109h8.765c.162 0 .275.049.255.109l-1.633 4.703c-.023.063-.174.114-.338.114h-8.927c-.165 0-.278-.051-.255-.114l1.799-4.703zm.58.593c.037-.099.278-.178.538-.178h6.814c.26 0 .442.079.408.178l-.603 1.721c-.034.099-.274.179-.536.179h-6.868c-.262 0-.444-.08-.406-.179l.653-1.721zM374.991 269.544c.019-.056.161-.102.316-.102h8.414c.155 0 .266.047.25.102l-1.329 4.33c-.017.058-.16.105-.318.105h-8.564c-.157 0-.269-.047-.249-.105l1.48-4.33zm.588.546c.031-.089.257-.163.507-.163h6.541c.249 0 .429.074.4.163l-.49 1.586c-.028.091-.254.165-.506.165h-6.589c-.252 0-.43-.074-.399-.165l.536-1.586z" fill="#554E12"/><path fill-rule="evenodd" clip-rule="evenodd" d="M373.207 274.762c.02-.059.164-.105.322-.105h8.586c.159 0 .272.046.254.105l-1.383 4.51c-.019.06-.164.109-.326.109h-8.742c-.161 0-.274-.049-.253-.109l1.542-4.51zm.596.569c.032-.094.264-.17.519-.17h6.674c.255 0 .438.076.408.17l-.511 1.65c-.03.096-.262.173-.519.173h-6.725c-.257 0-.437-.077-.405-.173l.559-1.65z" fill="#552612"/><path fill-rule="evenodd" clip-rule="evenodd" d="M371.348 280.196c.021-.06.169-.109.33-.109h8.766c.161 0 .276.049.258.109l-1.442 4.703c-.02.063-.169.114-.333.114h-8.928c-.165 0-.28-.051-.259-.114l1.608-4.703zm.604.593c.034-.099.271-.178.531-.178h6.814c.26 0 .446.079.416.178l-.534 1.721c-.03.099-.268.179-.53.179h-6.867c-.262 0-.447-.08-.413-.179l.583-1.721z" fill="#285221"/><path fill-rule="evenodd" clip-rule="evenodd" d="M385.325 269.544c.017-.056.156-.102.312-.102h8.414c.154 0 .268.047.253.102l-1.152 4.33c-.015.058-.156.105-.315.105h-8.564c-.158 0-.271-.047-.253-.105l1.305-4.33zm.611.546c.027-.089.25-.163.5-.163h6.541c.249 0 .431.074.407.163l-.427 1.586c-.024.091-.248.165-.5.165h-6.589c-.251 0-.432-.074-.405-.165l.473-1.586zM383.751 274.762c.017-.059.159-.105.318-.105h8.587c.158 0 .274.046.259.105l-1.202 4.51c-.016.06-.159.109-.321.109h-8.742c-.162 0-.276-.049-.259-.109l1.36-4.51zm.618.569c.028-.094.257-.17.512-.17h6.675c.255 0 .44.076.415.17l-.445 1.65c-.025.096-.255.173-.511.173h-6.725c-.257 0-.442-.077-.414-.173l.493-1.65z" fill="#1A4755"/><path fill-rule="evenodd" clip-rule="evenodd" d="M382.113 280.196c.019-.06.163-.109.325-.109h8.765c.162 0 .28.049.264.109l-1.252 4.703c-.018.063-.165.114-.33.114h-8.926c-.165 0-.282-.051-.264-.114l1.418-4.703zm.627.594c.029-.099.263-.178.523-.178h6.814c.261 0 .449.079.423.178l-.463 1.72c-.027.1-.26.18-.522.18h-6.868c-.262 0-.451-.08-.421-.18l.514-1.72z" fill="#552612"/><path fill-rule="evenodd" clip-rule="evenodd" d="M395.891 272.141h-70.347l1.689-3.185c.038-.07.229-.129.428-.129h32.263c.198 0 .336.059.309.129l-.093.231a.253.253 0 01.057.027.093.093 0 01.032.03c.008.014.01.028.004.043l-.097.241c.074.024.113.061.097.101l-.104.26c.078.024.12.061.104.103l-.05.125h2.538l.452-1.161c.013-.033.06-.063.126-.086a.912.912 0 01.284-.043h32.262c.199 0 .345.059.327.129l-.064.248a.178.178 0 01.043.028l.007.007a.064.064 0 01.015.028.045.045 0 01-.001.02l-.067.258c.049.022.075.052.067.084l-.072.277a.16.16 0 01.059.039c.012.015.017.031.013.047l-.032.125h.23l-.479 2.024z" fill="#021F33" fill-opacity=".8"/><path fill-rule="evenodd" clip-rule="evenodd" d="M325.544 272.141l-7.115 13.42c-.043.082.094.148.306.148a.74.74 0 01-.197-.023l-.015.03h34.687v1.714h3.497v-1.721h35.064v1.721h.502l3.618-15.289h-70.347z" fill="#00CDFF" fill-opacity=".3"/><path d="M575.727 322.639h36.151l3.997 8.209h-37.063l-3.085-8.209z" fill="#05090D"/><path fill-rule="evenodd" clip-rule="evenodd" d="M686.923 374.645h14.416l47.629 39.283c-21.353-9.605-42.591-19.43-62.966-30.128a1.326 1.326 0 00-.128-.058l-.05-.02-.009-.003-.047-.017-.037-.012-.062-.02a1.14 1.14 0 00.158-.119.564.564 0 00.091-.104.306.306 0 00.059-.174.318.318 0 00-.076-.198l1.022-8.43zm95.304 80.387c5.374-.49 10.199-1.097 14.41-1.788L1420.1 967.466H-483.967L235.01 374.645h61.433v5.658L151.307 513.028h95.464v2.323h127.866v-2.323h71.948a7.175 7.175 0 00-.906 1.426c-2.73 5.75 5.305 8.66 10.62 8.276 7.841-.566 14.402.255 16.946 2.391a36.652 36.652 0 01-1.761 2.724c-6.779 3.744-10.945 7.688-11.969 10.603-3.498 10.004-1.219 15.235.403 18.942.848 1.923 1.502 3.411 1.043 5.005-.81 2.867-2.47 5.259-4.141 7.665l-.034.05c-1.613 2.298-3.225 4.625-4.124 7.409-3.012 9.384-1.529 17.507 3.035 24.36-68.937 18.656-154.81 93.148-199.762 149.769 57.806-10.728 172.103-55.754 225.535-131.275 14.907 5.908 31.885 8.331 44.368 8.331 12.474 0 29.527-2.423 44.596-8.331C621.817 695.894 734.886 740.92 792.4 751.648 749 695.023 665.148 620.53 596.707 601.875c4.764-6.854 6.464-14.981 3.702-24.36-.82-2.785-2.372-5.107-3.924-7.41l-.114-.171c-1.57-2.365-3.133-4.72-3.848-7.544-.403-1.598.282-3.081 1.177-5.004l.003-.007c1.014-2.191 2.281-4.928 2.462-8.923 30.944 2.966 101.169 3.077 128.124-.945l-60.091-34.483h117.628L639.374 380.796h-.081v-6.151h7.686l1.022 8.43a.358.358 0 00-.069.136.256.256 0 00-.007.062v.015l.001.01c.001.017.005.033.009.05a.362.362 0 00.03.069l.011.019.006.009.013.019.021.027c0 .012.002.024.007.036a.061.061 0 00.005.012c.01.017.026.035.049.053 16.479 13.205 31.467 28.973 46.32 44.599l.003.003.001.001.004.004c7.13 7.501 14.229 14.968 21.446 22.104 9.86 10.691 43.787 7.099 60.876 5.289 2.118-.224 3.977-.421 5.5-.56zm-134.308 57.996h-33.192l4.282 7.033 28.91-7.033zm-496.644.029l.012-.012v.012h-.012zm427.81 12.791a20.663 20.663 0 01-.408-.727c2.169-1.761 7.03-2.623 13.035-2.558-.283 3.285-.7 6.909-1.172 10.537-2.67-2.377-6.53-4.902-11.455-7.252z" fill="#00CDFF" fill-opacity=".2"/></g><defs><radialGradient id="paint0_radial" cx="0" cy="0" r="1" gradientUnits="userSpaceOnUse" gradientTransform="matrix(0 168.325 -292.909 0 472.009 168.127)"><stop stop-color="#00CDFF"/><stop offset="1" stop-color="#00CDFF" stop-opacity="0"/></radialGradient><radialGradient id="paint1_radial" cx="0" cy="0" r="1" gradientUnits="userSpaceOnUse" gradientTransform="matrix(-81.17308 2.06321 -.22845 -8.98779 573.555 378.182)"><stop stop-color="#FF33B4"/><stop offset=".62" stop-color="#80266F" stop-opacity="0"/></radialGradient><clipPath id="clip0"><path fill="#fff" d="M0 0h936v568H0z"/></clipPath></defs></svg>